<svg xmlns="http://www.w3.org/2000/svg" viewBox="0 0 1440 1440"><circle cx="720" cy="720" r="660" fill="gray" opacity=".2"/><rect width="960" height="1320" x="240" y="60" fill="gray" opacity=".2" rx="90"/><rect width="960" height="1320" x="240" y="60" fill="gray" opacity=".2" rx="90" transform="rotate(90 720 720)"/><rect width="1140" height="1140" x="150" y="150" fill="gray" opacity=".2" rx="90"/><circle cx="720" cy="720" r="660" fill="none" stroke="#000" stroke-miterlimit="10"/><rect width="960" height="1320" x="240" y="60" fill="none" stroke="#000" stroke-miterlimit="10" rx="90"/><rect width="960" height="1320" x="240" y="60" fill="none" stroke="#000" stroke-miterlimit="10" rx="90" transform="rotate(90 720 720)"/><rect width="1140" height="1140" x="150" y="150" fill="none" stroke="#000" stroke-miterlimit="10" rx="90"/><path fill="none" stroke="#000" stroke-miterlimit="10" d="M0 0l1440 1440M1440 0L0 1440M0 720h1440M720 0v1440M510 0v1440M930 0v1440M0 510h1440M0 930h1440"/><circle cx="720" cy="720" r="300" fill="none" stroke="#000" stroke-miterlimit="10"/></svg>